<?xml version="1.0" encoding="UTF-8"?>
<!-- Generator: Adobe Illustrator 19.2.1, SVG Export Plug-In . SVG Version: 6.00 Build 0)  -->
<svg version="1.1" id="Layer_1" xmlns="http://www.w3.org/2000/svg" xmlns:xlink="http://www.w3.org/1999/xlink" x="0px" y="0px" viewBox="0 0 385 74.3" style="enable-background:new 0 0 385 74.3;" xml:space="preserve">
<style type="text/css">
	.st0{fill:#0071CE;}
	.st1{fill:#FFFFFF;}
	.st2{fill:#C2CCD3;}
</style>
<title>EAB_Royall-lock-up</title>
<path class="st0" d="M65.1,37.2c0,18-14.6,32.5-32.5,32.5S0,55.1,0,37.2S14.6,4.6,32.5,4.6l0,0C50.5,4.6,65.1,19.2,65.1,37.2"/>
<path class="st1" d="M77.5,51.9H82V23.2h-4.5v-2.8h24.3v7.1h-3.1v-4.2H85.4V36h13v2.9h-13v12.9h14.2v-4.4h3.2v7.4H77.5V51.9z"/>
<path class="st1" d="M106,51.9h3.5l11.6-31.5h3.8l11.6,31.5h3.5v2.8h-11v-2.8h4l-3.3-8.8h-13.4l-3.2,8.8h4v2.8h-11L106,51.9  L106,51.9z M128.8,40.2l-5.1-14.1c-0.2-0.7-0.4-1.5-0.5-2.2h-0.1c-0.1,0.7-0.2,1.5-0.5,2.2l-5.2,14.1H128.8L128.8,40.2z"/>
<path class="st1" d="M143.2,51.9h4.5V23.2h-4.5v-2.8h15.4c2-0.1,4.1,0.3,5.9,1.2c2.7,1.5,4.4,4.4,4.2,7.5c0.1,3.1-1.6,6-4.4,7.4v0.1  c3.6,1.2,6,4.7,5.8,8.5c0.1,3.9-2.2,7.5-5.8,9c-1.7,0.6-3.4,0.8-5.1,0.7h-16L143.2,51.9L143.2,51.9z M159.5,35.3  c3.1,0.1,5.7-2.3,5.8-5.4c0-0.2,0-0.4,0-0.7c0.1-2-0.8-4-2.5-5.1c-1.3-0.7-2.7-1-4.1-0.9h-7.6v12L159.5,35.3L159.5,35.3z   M159.4,51.8c1.2,0,2.4-0.1,3.6-0.5c2.4-1.1,3.9-3.6,3.8-6.3c0.2-3.5-2.5-6.6-6.1-6.8c-0.2,0-0.5,0-0.7,0h-8.8v13.6  C151.2,51.8,159.4,51.8,159.4,51.8z"/>
<path class="st1" d="M32.5,17.3c7,0.1,13.2,4.5,15.6,11l-3.9-1.7c-3.9-6.5-12.4-8.6-18.9-4.7c-1.9,1.1-3.5,2.7-4.6,4.6l-3.9,1.6  C19.4,21.8,25.6,17.4,32.5,17.3"/>
<polygon class="st1" points="32.5,27.6 17,34.4 17,31.6 32.5,24.8 48.1,31.6 48.1,34.4 "/>
<rect x="17" y="52.4" class="st1" width="31.2" height="2.6"/>
<rect x="35.6" y="37.2" class="st1" width="3.1" height="11.9"/>
<rect x="26.3" y="37.2" class="st1" width="3.1" height="11.9"/>
<rect x="17" y="37.2" class="st1" width="3.1" height="11.9"/>
<rect x="45" y="37.2" class="st1" width="3.1" height="11.9"/>
<rect x="188.9" class="st2" width="1.3" height="74.3"/>
<path class="st1" d="M208.7,28.8h4.6c1-0.1,2,0.1,2.9,0.4c1.5,0.7,2.4,2.3,2.3,4c0.1,1.9-1.1,3.6-2.9,4.2l0,0  c0.2,0.2,0.3,0.4,0.4,0.6l3.3,6.2h-1.7l-3.5-6.4h-3.9v6.4h-1.5L208.7,28.8L208.7,28.8z M213.9,36.3c1.6,0.1,2.9-1.1,3-2.7  c0-0.1,0-0.3,0-0.4c0.1-1.1-0.5-2.1-1.4-2.7c-0.7-0.3-1.4-0.4-2.2-0.4h-3.1v6.2C210.2,36.3,213.9,36.3,213.9,36.3z"/>
<path class="st1" d="M227,32.9c3.2,0,5.7,2.6,5.7,5.8s-2.6,5.7-5.8,5.7s-5.7-2.6-5.7-5.8l0,0c0-3.1,2.6-5.7,5.7-5.7  C226.9,32.9,226.9,32.9,227,32.9z M227,43.1c2.4,0,4.3-2,4.3-4.4v-0.1c0-2.4-1.9-4.3-4.3-4.3s-4.3,1.9-4.3,4.3  C222.6,41,224.5,43,227,43.1C226.9,43.1,226.9,43.1,227,43.1L227,43.1z"/>
<path class="st1" d="M234.4,46.9c0.4,0.3,0.8,0.5,1.3,0.5c1-0.1,1.9-0.8,2.2-1.8l0.7-1.6L234,33.2h1.6l3.2,8  c0.2,0.5,0.4,1.2,0.4,1.2l0,0c0.1-0.4,0.2-0.8,0.4-1.2l3.2-8h1.6L239,46.5c-0.5,1.4-1.7,2.3-3.2,2.3c-0.7,0-1.4-0.2-1.9-0.7  L234.4,46.9z"/>
<path class="st1" d="M252.2,37.4h0.6v-0.3c0.2-1.3-0.7-2.6-2-2.8c-0.2,0-0.5,0-0.7,0c-1.1,0-2.2,0.4-3.1,1.1l-0.7-1.1  c1.1-0.8,2.5-1.3,3.9-1.3c2.7,0,4.1,1.5,4.1,4.2v7h-1.4V43c0-0.3,0-0.6,0-0.9l0,0c-0.7,1.4-2.1,2.3-3.6,2.3  c-1.9,0.2-3.5-1.2-3.7-3.1c0-0.1,0-0.1,0-0.2C245.5,37.4,250.3,37.4,252.2,37.4z M249.5,43.2c2.1,0,3.4-2.2,3.4-4.1v-0.5h-0.7  c-1.7,0-5.1,0.1-5.1,2.5c0.1,1.2,1.1,2.1,2.3,2.1C249.4,43.2,249.4,43.2,249.5,43.2z"/>
<path class="st1" d="M257.5,28.8h1.5v12.4c0,1.4,0.7,1.7,1.3,1.7h0.4v1.3c-0.2,0-0.4,0-0.6,0c-1.3,0.1-2.4-0.8-2.6-2.1  c0-0.2,0-0.4,0-0.6L257.5,28.8L257.5,28.8z"/>
<path class="st1" d="M262.9,28.8h1.5v12.4c0,1.4,0.7,1.7,1.3,1.7h0.4v1.3c-0.2,0-0.4,0-0.6,0c-1.3,0.1-2.4-0.8-2.6-2.1  c0-0.2,0-0.4,0-0.6L262.9,28.8L262.9,28.8z"/>
<path class="st1" d="M278.9,43.8c-0.8,0.4-1.7,0.6-2.6,0.6c-0.6,0-1.3-0.1-1.9-0.3s-1.1-0.5-1.5-0.8c-0.4-0.4-0.8-0.8-1-1.4  c-0.3-0.6-0.4-1.2-0.4-1.9c0-0.5,0.1-1.1,0.3-1.5c0.2-0.5,0.5-0.9,0.9-1.3c0.4-0.4,0.8-0.7,1.3-1c0.4-0.3,0.8-0.6,1.3-0.8l-0.7-0.8  c-0.2-0.3-0.4-0.6-0.6-0.9c-0.2-0.3-0.3-0.6-0.5-1c-0.1-0.3-0.2-0.7-0.2-1.1c0-0.9,0.4-1.7,1-2.3c0.3-0.3,0.7-0.5,1.1-0.6  c0.9-0.3,1.8-0.3,2.7,0c0.4,0.1,0.8,0.4,1.1,0.6c0.3,0.3,0.6,0.6,0.7,1c0.2,0.4,0.3,0.8,0.3,1.3c0,0.4-0.1,0.9-0.3,1.3  c-0.2,0.4-0.4,0.7-0.7,1.1c-0.3,0.3-0.6,0.6-1,0.9c-0.4,0.3-0.7,0.5-1.1,0.8l3.4,4.1c0.2-0.4,0.3-0.7,0.4-1.1c0.1-0.5,0.1-1,0.1-1.5  h1.4c0,0.6-0.1,1.1-0.2,1.7c-0.1,0.7-0.4,1.4-0.7,2l2.6,3.2h-1.7l-1.7-2C280.4,42.8,279.7,43.4,278.9,43.8z M275.1,37.1  c-0.4,0.2-0.7,0.5-1,0.8s-0.6,0.7-0.7,1.1c-0.2,0.4-0.3,0.8-0.3,1.3c0,0.4,0.1,0.9,0.3,1.3c0.2,0.4,0.4,0.7,0.8,1  c0.3,0.3,0.7,0.5,1.2,0.6c0.4,0.1,0.8,0.2,1.3,0.2c0.8,0,1.5-0.2,2.1-0.6c0.6-0.4,1.2-1,1.6-1.6l-3.9-4.7  C275.8,36.6,275.5,36.8,275.1,37.1L275.1,37.1z M275.5,30.2c-0.4,0.4-0.7,0.9-0.6,1.5c0,0.3,0.1,0.6,0.2,0.8  c0.1,0.3,0.3,0.6,0.4,0.8c0.2,0.3,0.4,0.5,0.6,0.8l0.6,0.7l0.8-0.6c0.3-0.2,0.5-0.4,0.8-0.7c0.2-0.3,0.4-0.5,0.6-0.8  c0.1-0.3,0.2-0.7,0.2-1c0-0.6-0.2-1.1-0.6-1.5C277.6,29.5,276.4,29.5,275.5,30.2z"/>
<path class="st1" d="M296.9,28.5c2-0.1,4,0.6,5.5,2l-0.8,1.1c-1.3-1.1-3-1.7-4.7-1.7c-3.4,0-6.2,2.7-6.2,6.1c0,0.1,0,0.2,0,0.3  c-0.2,3.5,2.4,6.5,5.9,6.7c0.1,0,0.2,0,0.3,0c1.9,0,3.7-0.8,5-2.1l0.9,1.1c-1.6,1.5-3.7,2.3-5.9,2.3c-4.3,0-7.8-3.4-7.8-7.7  c0-0.1,0-0.3,0-0.4c-0.1-4.2,3.2-7.7,7.5-7.8C296.7,28.5,296.8,28.5,296.9,28.5z"/>
<path class="st1" d="M310.6,32.9c3.2,0,5.7,2.7,5.7,5.8c0,3.2-2.7,5.7-5.8,5.7c-3.2,0-5.7-2.7-5.7-5.8S307.4,32.9,310.6,32.9  C310.5,32.9,310.6,32.9,310.6,32.9z M310.6,43.1c2.4,0,4.3-2,4.3-4.4v-0.1c0-2.4-1.9-4.3-4.3-4.3s-4.3,1.9-4.3,4.3  C306.3,41,308.2,43,310.6,43.1L310.6,43.1L310.6,43.1z"/>
<path class="st1" d="M319.2,33.2h1.5v1.6c0,0.5,0,0.9,0,0.9l0,0c0.7-1.6,2.2-2.7,4-2.8c1.7-0.2,3.2,1,3.4,2.7v0.1l0,0  c0.7-1.6,2.3-2.7,4-2.8c2.7,0,3.7,1.6,3.7,4.3v7h-1.5v-6.6c0-1.8-0.4-3.3-2.4-3.3c-1.7,0.1-3.1,1.4-3.5,3.1  c-0.1,0.5-0.2,1.1-0.2,1.6v5.1h-1.5v-6.6c0-1.7-0.2-3.3-2.3-3.3c-1.8,0.2-3.3,1.5-3.6,3.2c-0.1,0.5-0.2,1-0.2,1.5V44h-1.5  L319.2,33.2L319.2,33.2z"/>
<path class="st1" d="M339.1,33.2h1.4v1.1c0,0.3,0,0.6,0,0.8l0,0c0.7-1.4,2.2-2.3,3.9-2.2c2.9,0,4.8,2.4,4.8,5.8c0,3.4-2.1,5.7-5,5.7  c-1.5,0-2.9-0.8-3.6-2.1l0,0c0,0.3,0,0.6,0,1v5.3h-1.5V33L339.1,33.2z M344.1,43.1c1.9,0,3.5-1.6,3.5-4.4s-1.4-4.4-3.5-4.4  c-1.8,0-3.6,1.3-3.6,4.4C340.6,40.9,341.8,43.1,344.1,43.1z"/>
<path class="st1" d="M357.8,37.4h0.6v-0.3c0.2-1.3-0.7-2.6-2-2.8c-0.2,0-0.5,0-0.7,0c-1.1,0-2.2,0.4-3.1,1.1l-0.7-1.1  c1.1-0.8,2.5-1.3,3.9-1.3c2.7,0,4.1,1.5,4.1,4.2v7h-1.4V43c0-0.3,0-0.6,0-0.9l0,0c-0.7,1.4-2.1,2.3-3.6,2.3  c-1.9,0.2-3.5-1.2-3.7-3.1v-0.1C351.1,37.4,355.9,37.4,357.8,37.4z M355.1,43.2c2.1,0,3.4-2.2,3.4-4.1v-0.5h-0.6  c-1.7,0-5.1,0.1-5.1,2.5C352.9,42.3,353.9,43.2,355.1,43.2C355,43.2,355,43.2,355.1,43.2L355.1,43.2z"/>
<path class="st1" d="M363.3,33.2h1.5v1.6c0,0.5,0,0.9,0,0.9l0,0c0.8-1.7,2.5-2.8,4.4-2.8c2.7,0,3.7,1.6,3.7,4.3v7h-1.5v-6.6  c0-1.7-0.3-3.3-2.4-3.3c-1.9,0-3.5,1.3-4,3.1c-0.1,0.5-0.2,1-0.2,1.5v5.3h-1.5V33.2L363.3,33.2z"/>
<path class="st1" d="M375.1,46.9c0.4,0.3,0.8,0.5,1.3,0.5c1-0.1,1.8-0.8,2.1-1.8l0.7-1.6l-4.6-10.9h1.6l3.2,8  c0.2,0.5,0.4,1.2,0.4,1.2l0,0c0.1-0.4,0.2-0.8,0.4-1.2l3.2-8h1.6l-5.4,13.3c-0.5,1.4-1.7,2.3-3.2,2.3c-0.7,0-1.4-0.2-1.9-0.7  L375.1,46.9z"/>
</svg>