<?xml version="1.0" encoding="utf-8"?>
<!-- Generator: Adobe Illustrator 19.0.1, SVG Export Plug-In . SVG Version: 6.00 Build 0)  -->
<svg version="1.1" id="Layer_1" xmlns="http://www.w3.org/2000/svg" xmlns:xlink="http://www.w3.org/1999/xlink" x="0px" y="0px"
	 viewBox="0 0 161.5 69.2" style="enable-background:new 0 0 161.5 69.2;" xml:space="preserve">
<style type="text/css">
	.st0{fill:#0071CE;}
	.st1{fill:#333E48;}
	.st2{fill:#FFFFFF;}
</style>
<g>
	<g>
		<path class="st0" d="M57,35.3c0,13.9-11.3,25.2-25.2,25.2c-13.9,0-25.2-11.3-25.2-25.2C6.5,21.3,17.8,10,31.8,10
			C45.7,10,57,21.3,57,35.3"/>
		<g>
			<path class="st1" d="M66.6,46.7h3.5V24.5h-3.5v-2.2h18.8v5.5h-2.4v-3.3H72.8v9.8h10.1v2.3H72.8v10h11v-3.5h2.4v5.7H66.6V46.7z"/>
			<path class="st1" d="M88.7,46.7h2.7l9-24.5h2.9l9,24.5h2.7v2.2h-8.5v-2.2h3.1l-2.5-6.9H96.7l-2.5,6.9h3.1v2.2h-8.5V46.7z
				 M106.4,37.6l-4-10.9c-0.3-0.9-0.4-1.7-0.4-1.7h-0.1c0,0-0.1,0.8-0.4,1.7l-4.1,10.9H106.4z"/>
			<path class="st1" d="M117.6,46.7h3.5V24.5h-3.5v-2.2h12c1.9,0,3.3,0.3,4.6,0.9c1.9,0.9,3.3,3.1,3.3,5.8c0,2.7-1.4,4.7-3.4,5.8
				v0.1c2.7,0.8,4.5,3.4,4.5,6.6c0,3.3-1.9,6-4.5,6.9c-1.2,0.5-2.5,0.6-4,0.6h-12.4V46.7z M130.2,33.8c2.7,0,4.5-1.9,4.5-4.7
				c0-1.7-0.7-3.2-1.9-3.9c-0.8-0.5-1.9-0.7-3.2-0.7h-5.9v9.3H130.2z M130.1,46.6c0.8,0,1.9-0.1,2.8-0.4c1.8-0.8,2.9-2.6,2.9-4.9
				c0-3.2-2.2-5.3-5.3-5.3h-6.8v10.5H130.1z"/>
		</g>
		<g>
			<path class="st2" d="M31.8,19.9c5.3,0,10.4,3.6,12.1,8.6l-3-1.3c-1.6-2.5-4.8-5.2-9.1-5.2c-3.6,0-7.1,1.9-9.1,5.1l-3,1.3
				C21.4,23.5,26.5,19.9,31.8,19.9"/>
			<polygon class="st2" points="31.8,27.8 19.7,33.2 19.7,31 31.8,25.6 43.9,31 43.9,33.2 			"/>
			<rect x="19.7" y="47.1" class="st2" width="24.2" height="2"/>
			<rect x="34.2" y="35.3" class="st2" width="2.4" height="9.2"/>
			<rect x="26.9" y="35.3" class="st2" width="2.4" height="9.2"/>
			<rect x="19.7" y="35.3" class="st2" width="2.4" height="9.2"/>
			<rect x="41.4" y="35.3" class="st2" width="2.4" height="9.2"/>
		</g>
	</g>
</g>
</svg>
